<svg width="185" height="197" viewBox="0 0 185 197" fill="none" xmlns="http://www.w3.org/2000/svg">
<path d="M82.4091 1.27273V74H72.3239L35.3565 20.6619H34.6818V74H23.7088V1.27273H33.8651L70.8679 54.6818H71.5426V1.27273H82.4091ZM161.591 37.6364C161.591 45.4015 160.17 52.0777 157.329 57.6648C154.488 63.2282 150.594 67.5133 145.646 70.5199C140.722 73.5028 135.123 74.9943 128.849 74.9943C122.552 74.9943 116.929 73.5028 111.981 70.5199C107.057 67.5133 103.174 63.2164 100.333 57.6293C97.4925 52.0421 96.0721 45.3778 96.0721 37.6364C96.0721 29.8712 97.4925 23.2069 100.333 17.6435C103.174 12.0563 107.057 7.7713 111.981 4.78835C116.929 1.78172 122.552 0.278406 128.849 0.278406C135.123 0.278406 140.722 1.78172 145.646 4.78835C150.594 7.7713 154.488 12.0563 157.329 17.6435C160.17 23.2069 161.591 29.8712 161.591 37.6364ZM150.724 37.6364C150.724 31.7178 149.765 26.7344 147.848 22.6861C145.954 18.6141 143.35 15.5365 140.035 13.4531C136.744 11.3461 133.016 10.2926 128.849 10.2926C124.659 10.2926 120.918 11.3461 117.627 13.4531C114.337 15.5365 111.733 18.6141 109.815 22.6861C107.921 26.7344 106.974 31.7178 106.974 37.6364C106.974 43.5549 107.921 48.5502 109.815 52.6222C111.733 56.6705 114.337 59.7481 117.627 61.8551C120.918 63.9384 124.659 64.9801 128.849 64.9801C133.016 64.9801 136.744 63.9384 140.035 61.8551C143.35 59.7481 145.954 56.6705 147.848 52.6222C149.765 48.5502 150.724 43.5549 150.724 37.6364ZM47.0886 122.273H58.0971V170.107C58.0971 175.196 56.9016 179.706 54.5105 183.636C52.1194 187.543 48.7576 190.62 44.4253 192.869C40.0929 195.095 35.0147 196.207 29.1909 196.207C23.3907 196.207 18.3244 195.095 13.992 192.869C9.65962 190.62 6.29788 187.543 3.90678 183.636C1.51568 179.706 0.320135 175.196 0.320135 170.107V122.273H11.2931V169.219C11.2931 172.509 12.0152 175.433 13.4593 177.99C14.9271 180.547 16.9986 182.559 19.6738 184.027C22.349 185.471 25.5214 186.193 29.1909 186.193C32.8841 186.193 36.0682 185.471 38.7434 184.027C41.4423 182.559 43.502 180.547 44.9224 177.99C46.3665 175.433 47.0886 172.509 47.0886 169.219V122.273ZM113.717 141.378C113.338 138.016 111.776 135.412 109.029 133.565C106.283 131.695 102.827 130.76 98.66 130.76C95.677 130.76 93.0965 131.233 90.9185 132.18C88.7405 133.104 87.0478 134.382 85.8404 136.016C84.6567 137.625 84.0648 139.46 84.0648 141.52C84.0648 143.248 84.4673 144.74 85.2722 145.994C86.1008 147.249 87.178 148.303 88.5037 149.155C89.8532 149.983 91.2973 150.682 92.8361 151.25C94.3749 151.795 95.8546 152.244 97.275 152.599L104.377 154.446C106.697 155.014 109.077 155.784 111.515 156.754C113.954 157.725 116.214 159.003 118.298 160.589C120.381 162.176 122.062 164.141 123.34 166.484C124.642 168.828 125.294 171.634 125.294 174.901C125.294 179.02 124.228 182.678 122.097 185.874C119.99 189.07 116.925 191.591 112.9 193.438C108.899 195.284 104.058 196.207 98.3759 196.207C92.9308 196.207 88.2196 195.343 84.2424 193.615C80.2651 191.887 77.1519 189.437 74.9029 186.264C72.6538 183.068 71.4109 179.28 71.1742 174.901H82.1827C82.3958 177.528 83.248 179.718 84.7395 181.47C86.2547 183.198 88.1841 184.489 90.5279 185.341C92.8953 186.17 95.4876 186.584 98.3049 186.584C101.406 186.584 104.164 186.098 106.579 185.128C109.017 184.134 110.935 182.76 112.332 181.009C113.729 179.233 114.427 177.161 114.427 174.794C114.427 172.64 113.811 170.876 112.58 169.503C111.373 168.13 109.728 166.993 107.644 166.094C105.585 165.194 103.253 164.401 100.649 163.714L92.0549 161.371C86.231 159.785 81.6145 157.453 78.2054 154.375C74.82 151.297 73.1273 147.225 73.1273 142.159C73.1273 137.969 74.2637 134.311 76.5364 131.186C78.8091 128.061 81.8868 125.634 85.7694 123.906C89.6519 122.154 94.0317 121.278 98.9086 121.278C103.833 121.278 108.177 122.143 111.941 123.871C115.729 125.599 118.712 127.978 120.89 131.009C123.068 134.015 124.204 137.472 124.299 141.378H113.717ZM138.406 195V122.273H184.003V131.719H149.379V153.878H181.623V163.288H149.379V185.554H184.429V195H138.406Z" fill="white"/>
</svg>
